<?xml version="1.0" encoding="UTF-8"?>
<svg width="24px" height="24px" viewBox="0 0 24 24" version="1.1" xmlns="http://www.w3.org/2000/svg">
    <path d="M12 2C6.477 2 2 6.477 2 12s4.477 10 10 10 10-4.477 10-10S17.523 2 12 2zm6.918 8h-3.215c-.188-1.424-.778-2.767-1.722-3.84A8.003 8.003 0 0118.918 10zm-13.836 0h3.215c.188-1.424.778-2.767 1.722-3.84A8.003 8.003 0 005.082 10zM12 4c.62 0 1.368.872 1.922 2.374.223.602.382 1.25.474 1.926H9.604c.092-.676.251-1.324.474-1.926C10.632 4.872 11.38 4 12 4zM9.604 15.7c-.092-.676-.251-1.324-.474-1.926C8.632 12.128 7.88 11.3 7.26 11.3v-.6c.62 0 1.368-.872 1.922-2.374.223-.602.382-1.25.474-1.926h4.792c-.092.676-.251 1.324-.474 1.926-.554 1.502-1.302 2.374-1.922 2.374v.6c.62 0 1.368.872 1.922 2.374.223.602.382 1.25.474 1.926H9.604z" fill="currentColor"/>
</svg>