<svg width="166" height="31" viewBox="0 0 166 31" fill="none" xmlns="http://www.w3.org/2000/svg">
<path d="M41.1602 16.1266L28.3711 1.0427C28.2232 0.867673 28.0562 0.712045 27.8715 0.575819C27.6868 0.4402 27.4893 0.326813 27.2779 0.236669C27.0673 0.146728 26.8486 0.082253 26.6228 0.0432448C26.3971 0.00383232 26.1697 -0.00829389 25.9413 0.00544995L6.22617 1.21834C5.96382 1.23492 5.70815 1.28565 5.45914 1.37054C5.20993 1.45563 4.97649 1.57184 4.75841 1.71959C4.54113 1.86693 4.34629 2.04095 4.1749 2.24044C4.00351 2.43993 3.86162 2.65902 3.74904 2.89691C3.67143 2.99473 3.60756 3.10145 3.55703 3.21585L0.191937 11.1335C0.128149 11.2887 0.0920914 11.4492 0.0832185 11.6166C0.0283038 11.8429 0.000574145 12.0719 8.22263e-06 12.3048C-0.000537489 12.537 0.0260815 12.7666 0.0793388 12.9928C0.133142 13.2195 0.212452 13.4364 0.317289 13.6442C0.422126 13.8522 0.549701 14.045 0.700015 14.2222L13.4884 29.3067C13.722 29.5703 13.9943 29.7853 14.3049 29.9521C14.3936 30.001 14.4862 30.0404 14.5832 30.0705C14.672 30.1198 14.7647 30.1594 14.8611 30.1893C15.1962 30.2983 15.5396 30.3462 15.8911 30.3322L35.6062 29.1189C35.8381 29.1044 36.065 29.0634 36.2874 28.9948C36.5093 28.9265 36.7207 28.8338 36.9202 28.7153C37.1205 28.5975 37.3042 28.4574 37.4712 28.2957C37.6381 28.134 37.7838 27.9556 37.9081 27.7593C38.0223 27.637 38.1133 27.4992 38.1806 27.3458L41.5452 19.4281C41.5929 19.3119 41.625 19.1925 41.6422 19.0679C41.736 18.824 41.7958 18.5716 41.8225 18.3108C41.849 18.0503 41.8413 17.7912 41.7987 17.5327C41.7564 17.2744 41.681 17.0258 41.5729 16.7875C41.4642 16.549 41.3265 16.3289 41.1602 16.1266ZM26.7449 5.2659C26.771 5.21295 26.8031 5.16404 26.8415 5.11917C26.8797 5.0741 26.9224 5.03408 26.9701 4.99911C27.0178 4.96394 27.0695 4.93565 27.1237 4.91281C27.1787 4.89058 27.2346 4.87501 27.2935 4.86612C27.3517 4.85723 27.4105 4.85561 27.4693 4.86066C27.5281 4.86571 27.5859 4.87784 27.6413 4.89684C27.6973 4.91624 27.7506 4.94131 27.8006 4.97284C27.8505 5.00457 27.896 5.04176 27.9364 5.08461L37.993 16.9736C38.0118 16.9991 38.029 17.0258 38.0446 17.0537C38.0601 17.082 38.0735 17.1109 38.0852 17.1404C38.0967 17.1699 38.1062 17.2004 38.1139 17.2315C38.1218 17.262 38.1278 17.2938 38.1311 17.3255C38.1351 17.357 38.1367 17.3888 38.1361 17.4205C38.1355 17.4526 38.1333 17.4844 38.1288 17.5161C38.124 17.5472 38.1177 17.5784 38.109 17.6095C38.1006 17.64 38.09 17.6701 38.0773 17.6994C38.0652 17.7283 38.0506 17.7568 38.0347 17.7845C38.0185 17.8118 38.0003 17.8385 37.9809 17.8635C37.9615 17.8884 37.9403 17.9125 37.9176 17.9347C37.8948 17.9573 37.871 17.9779 37.8455 17.9973C37.8204 18.0169 37.7939 18.0341 37.7663 18.0503C37.7384 18.0659 37.7101 18.0796 37.6808 18.0919C37.6513 18.1041 37.6209 18.1148 37.5904 18.1225C37.5599 18.1307 37.5282 18.137 37.4966 18.1415L33.082 18.4155C32.9711 18.4198 32.8639 18.4004 32.7619 18.3565C32.6598 18.3131 32.5717 18.2492 32.4979 18.1659L25.3038 9.65686C25.2202 9.55277 25.168 9.43493 25.148 9.30336C25.128 9.17097 25.1431 9.04324 25.1925 8.91914L26.7449 5.2659ZM4.63875 8.2184C4.66927 8.13271 4.71354 8.05611 4.77235 7.98718C4.83117 7.91826 4.90049 7.86208 4.97972 7.81862C5.05916 7.77537 5.14404 7.74748 5.23338 7.73535C5.32312 7.72302 5.41245 7.72706 5.50057 7.74748C5.5889 7.76809 5.67035 7.80366 5.74534 7.85419C5.82073 7.90492 5.88439 7.96758 5.93654 8.04155C5.98868 8.11553 6.02587 8.19657 6.04871 8.28449C6.07094 8.37221 6.07701 8.46115 6.0669 8.55129C6.05639 8.64123 6.03032 8.72632 5.98868 8.80696C5.94725 8.88761 5.89288 8.95754 5.82517 9.01817C5.75746 9.0782 5.68147 9.12428 5.59719 9.15662C5.5123 9.18876 5.42458 9.20493 5.33423 9.20493C5.27542 9.20493 5.21721 9.19765 5.15961 9.18371C5.10241 9.16996 5.04743 9.14935 4.99488 9.12206C4.94213 9.09437 4.89383 9.06143 4.84956 9.02262C4.80449 8.98361 4.76508 8.93975 4.73132 8.89145C4.69696 8.84314 4.66928 8.7914 4.64765 8.73643C4.62602 8.68125 4.61086 8.62465 4.60318 8.56624C4.5949 8.50743 4.59429 8.44902 4.59995 8.39C4.60601 8.33118 4.61935 8.27399 4.63875 8.2184ZM15.1146 25.0831C15.0885 25.1359 15.0564 25.1854 15.0182 25.2302C14.98 25.2753 14.9371 25.3153 14.8894 25.3499C14.8417 25.3849 14.7902 25.4138 14.7358 25.436C14.6815 25.4588 14.6249 25.4744 14.566 25.4833C14.5078 25.4922 14.449 25.4938 14.3902 25.4887C14.3314 25.4833 14.2744 25.471 14.2184 25.4522C14.1622 25.4332 14.1091 25.4077 14.0591 25.376C14.0092 25.3442 13.9637 25.307 13.9233 25.2642L3.86041 13.3891C3.84161 13.3636 3.82504 13.337 3.80948 13.3085C3.79391 13.2808 3.78057 13.2519 3.76905 13.2224C3.75733 13.1925 3.74743 13.1623 3.73954 13.1312C3.73186 13.1007 3.7262 13.069 3.72236 13.0372C3.71913 13.0057 3.71731 12.974 3.71792 12.9422C3.71792 12.9101 3.72075 12.8784 3.72519 12.8466C3.72964 12.8155 3.73631 12.7844 3.7452 12.7533C3.75349 12.7227 3.764 12.6926 3.77673 12.6633C3.78886 12.6344 3.80341 12.6059 3.81938 12.5782C3.83555 12.5509 3.85334 12.5243 3.87274 12.4992C3.89275 12.4743 3.91377 12.4503 3.9364 12.4281C3.95864 12.4054 3.98309 12.3848 4.00795 12.3654C4.03362 12.3458 4.0601 12.3286 4.08799 12.3124C4.11507 12.2969 4.14398 12.2831 4.17328 12.2708C4.20279 12.2587 4.23271 12.248 4.26383 12.2403C4.29415 12.232 4.32527 12.2257 4.35701 12.2213L8.77201 11.9474C8.88297 11.943 8.98949 11.9624 9.09216 12.0062C9.19423 12.0497 9.28235 12.1136 9.35613 12.1968L16.5674 20.6655C16.6511 20.7687 16.7032 20.8872 16.7232 21.019C16.7432 21.1505 16.7283 21.2791 16.6788 21.403L15.1146 25.0831ZM19.552 19.2274C19.4411 19.2319 19.3346 19.2125 19.2325 19.1692C19.13 19.1251 19.0423 19.0619 18.9685 18.9784L7.32386 5.24084C7.30506 5.21477 7.28788 5.18809 7.27232 5.1602C7.25736 5.13251 7.24341 5.10361 7.23169 5.07349C7.22017 5.04398 7.21067 5.01346 7.20299 4.98294C7.19511 4.95182 7.18965 4.92069 7.18581 4.88896C7.18177 4.85723 7.18015 4.82509 7.18076 4.79336C7.18137 4.76163 7.18399 4.72989 7.18844 4.69836C7.19289 4.66663 7.19956 4.63551 7.20784 4.60499C7.21674 4.57426 7.22725 4.54435 7.23957 4.51484C7.25231 4.48533 7.26605 4.45704 7.28222 4.42975C7.29879 4.40206 7.31658 4.37599 7.33598 4.35093C7.35539 4.32526 7.37661 4.30141 7.39924 4.27918C7.42208 4.25694 7.44594 4.23592 7.4714 4.21692C7.49687 4.19752 7.52294 4.17974 7.55063 4.16417C7.57852 4.148 7.60662 4.13406 7.63613 4.12193C7.66604 4.1096 7.69595 4.0997 7.72647 4.09141C7.7576 4.08292 7.78872 4.07686 7.82025 4.07241L23.3342 3.12025C23.393 3.12025 23.4512 3.12752 23.509 3.14147C23.566 3.15582 23.621 3.17644 23.6738 3.20372C23.7259 3.23101 23.7746 3.26375 23.8191 3.30256C23.8634 3.34156 23.9028 3.38542 23.9371 3.43373C23.9711 3.48224 23.9988 3.53378 24.021 3.58895C24.0426 3.64393 24.057 3.70052 24.0653 3.75954C24.0731 3.81795 24.0742 3.87677 24.0681 3.93518C24.062 3.99399 24.0493 4.05139 24.0293 4.10697L22.4768 7.76041C22.4219 7.88208 22.3398 7.98092 22.2311 8.05833C22.1223 8.13554 22.0015 8.17939 21.8689 8.19112L15.5047 8.57958C15.4729 8.58342 15.442 8.58969 15.4109 8.59797C15.3804 8.60626 15.3499 8.61637 15.3205 8.62849C15.291 8.64082 15.2627 8.65457 15.2351 8.67074C15.2074 8.68691 15.1807 8.70409 15.1558 8.72349C15.1302 8.74309 15.1063 8.76351 15.0837 8.78574C15.0608 8.80858 15.0398 8.83243 15.0204 8.85749C15.001 8.88256 14.9826 8.90863 14.9666 8.93652C14.9505 8.9636 14.9361 8.9921 14.9238 9.02141C14.9111 9.05092 14.9012 9.08103 14.8923 9.11155C14.884 9.14207 14.8773 9.1732 14.8729 9.20493C14.8678 9.23666 14.8656 9.26819 14.8652 9.29992C14.8646 9.33226 14.8662 9.36379 14.87 9.39552C14.8735 9.42725 14.8795 9.45838 14.8872 9.48951C14.8951 9.52063 14.9044 9.55054 14.9161 9.58066C14.9278 9.61017 14.9416 9.63907 14.9565 9.66676C14.9721 9.69465 14.9893 9.72174 15.0083 9.74741L15.8456 10.7384C15.9439 10.854 16.0538 10.9563 16.1753 11.0464C16.2972 11.1357 16.4275 11.2103 16.5668 11.2697C16.7054 11.3288 16.8498 11.3714 16.9983 11.3971C17.1475 11.4231 17.2972 11.4314 17.4482 11.4225L22.3192 11.0947C22.4302 11.0897 22.5367 11.1097 22.6387 11.1531C22.7414 11.197 22.8289 11.2602 22.9027 11.3437L28.1361 17.58C28.1549 17.6056 28.1714 17.6323 28.187 17.6606C28.2026 17.6883 28.2159 17.7172 28.2276 17.7467C28.2391 17.7768 28.2493 17.8067 28.2569 17.8379C28.2648 17.869 28.2703 17.9001 28.2741 17.9319C28.2776 17.9636 28.2792 17.9951 28.2786 18.0275C28.2786 18.0592 28.2757 18.0907 28.2713 18.1225C28.267 18.1542 28.2604 18.1853 28.2515 18.2158C28.2432 18.2464 28.2325 18.2765 28.2197 18.306C28.2076 18.3353 28.1933 18.3638 28.1771 18.3911C28.1609 18.4188 28.1433 18.4448 28.1237 18.4699C28.1039 18.495 28.0827 18.5188 28.0601 18.541C28.0378 18.5639 28.0134 18.5845 27.9885 18.6039C27.9631 18.6233 27.9364 18.6405 27.9087 18.6566C27.8814 18.6722 27.8527 18.6868 27.8232 18.6989C27.7939 18.7106 27.7638 18.7211 27.7328 18.7294C27.7023 18.7373 27.6712 18.744 27.6397 18.7478L19.552 19.2274ZM34.0421 26.2697L18.5287 27.2219C18.4699 27.2219 18.4117 27.2152 18.3545 27.2013C18.2973 27.1873 18.2425 27.1669 18.1904 27.1396C18.1382 27.1129 18.0899 27.0802 18.0451 27.0418C18.0006 27.0028 17.9612 26.9595 17.9274 26.9116C17.8931 26.8639 17.8652 26.8128 17.8431 26.7578C17.8209 26.7033 17.806 26.6467 17.7977 26.5889C17.7894 26.5304 17.7876 26.472 17.7932 26.4132C17.7987 26.3548 17.811 26.2976 17.8304 26.242L19.3829 22.5886C19.4378 22.4673 19.5199 22.3679 19.6286 22.2911C19.7374 22.2139 19.8582 22.1694 19.9908 22.1583L31.0829 21.477C31.1939 21.4725 31.3004 21.4919 31.4031 21.5358C31.5051 21.5792 31.5933 21.6425 31.6664 21.726L34.5302 25.1219C34.5474 25.1476 34.5635 25.1743 34.5779 25.2013C34.5924 25.2292 34.6046 25.2575 34.6151 25.2864C34.6262 25.3159 34.6351 25.3454 34.6418 25.3754C34.649 25.4061 34.6539 25.4366 34.6573 25.4671C34.6599 25.4982 34.6612 25.5288 34.6606 25.5599C34.6599 25.591 34.6573 25.6217 34.6523 25.6523C34.6478 25.6834 34.6411 25.7133 34.6329 25.7434C34.6246 25.7729 34.6141 25.8022 34.6017 25.8307C34.5902 25.859 34.5763 25.8867 34.5601 25.9134C34.5447 25.9401 34.5276 25.9663 34.5086 25.9908C34.4898 26.0153 34.4698 26.0385 34.4481 26.0607C34.4259 26.0824 34.4033 26.103 34.3788 26.1224C34.3543 26.1414 34.3289 26.1592 34.3022 26.1747C34.2757 26.1909 34.2484 26.2046 34.2195 26.2176C34.1912 26.2297 34.1625 26.2402 34.1326 26.2491C34.1031 26.258 34.0732 26.2647 34.0421 26.2697ZM37.2238 22.1239C37.1971 22.1773 37.165 22.2262 37.1272 22.2711C37.089 22.3161 37.0457 22.3562 36.998 22.3911C36.9503 22.4257 36.8992 22.4546 36.8448 22.4768C36.79 22.4997 36.7334 22.5152 36.675 22.5241C36.6168 22.533 36.558 22.5346 36.4994 22.5296C36.4406 22.5245 36.3828 22.5124 36.3268 22.493C36.2708 22.474 36.2181 22.4489 36.1681 22.4168C36.1182 22.3851 36.0727 22.3479 36.0317 22.3056C36.0129 22.2796 35.9957 22.2529 35.9808 22.225C35.9652 22.1973 35.9519 22.1684 35.9401 22.1383C35.9286 22.1088 35.9185 22.0783 35.9108 22.0477C35.903 22.0166 35.8975 21.9855 35.8937 21.9538C35.8902 21.922 35.8886 21.8899 35.8892 21.8582C35.8892 21.8264 35.892 21.7949 35.8963 21.7632C35.9007 21.7314 35.9074 21.7003 35.9159 21.6698C35.9246 21.6393 35.9353 21.6091 35.9474 21.5796C35.9602 21.5503 35.9745 21.5218 35.9907 21.4941C36.0068 21.4669 36.0244 21.4408 36.0438 21.4151C36.0638 21.3903 36.0851 21.3662 36.1071 21.344C36.1299 21.3217 36.1538 21.3007 36.1792 21.2813C36.2047 21.2623 36.2314 21.2445 36.2587 21.229C36.2864 21.2128 36.3151 21.1991 36.3446 21.1867C36.3739 21.1746 36.404 21.1645 36.4349 21.1562C36.4654 21.1479 36.4966 21.1417 36.5281 21.1372C36.5875 21.1372 36.6457 21.1445 36.7029 21.1584C36.7605 21.1728 36.8155 21.1934 36.8676 21.2207C36.9202 21.248 36.9685 21.2807 37.0136 21.3195C37.0578 21.3585 37.0973 21.4024 37.131 21.4507C37.1654 21.4992 37.1933 21.5507 37.2149 21.6059C37.2365 21.6609 37.2515 21.7175 37.2598 21.7765C37.2674 21.8349 37.2686 21.8937 37.2626 21.9521C37.2565 22.0109 37.2436 22.0684 37.2238 22.1239Z" fill="white"/>
<path d="M51.7059 4.95027H55.3076V24.0526H51.7059V4.95027ZM59.1721 10.4462H62.4536V12.1537H62.667C63.0761 11.4956 63.6542 10.9798 64.4012 10.6063C65.1482 10.215 65.9575 10.0193 66.829 10.0193C68.4653 10.0193 69.7104 10.5173 70.5641 11.5134C71.4178 12.5094 71.8447 13.87 71.8447 15.5953V24.0526H68.3497V16.0221C68.3497 15.1506 68.1274 14.4747 67.6827 13.9945C67.2381 13.5143 66.6156 13.2742 65.8152 13.2742C64.8725 13.2742 64.1077 13.6388 63.5208 14.368C62.9516 15.0973 62.667 16.0132 62.667 17.116V24.0526H59.1721V10.4462ZM80.3885 24.266C79.7126 24.266 79.0901 24.1682 78.521 23.9725C77.9518 23.7591 77.4894 23.4745 77.1336 23.1188C76.2977 22.3184 75.8797 21.1801 75.8797 19.7039V13.4343H73.5053V10.4462H75.8797V6.60437H79.3747V10.4462H82.7096V13.4343H79.3747V19.0636C79.3747 19.7572 79.5259 20.2552 79.8282 20.5576C80.0773 20.8422 80.5041 20.9845 81.1088 20.9845C81.4468 20.9845 81.7225 20.94 81.9359 20.8511C82.1671 20.7621 82.4606 20.611 82.8163 20.3975V23.8125C82.0515 24.1148 81.2422 24.266 80.3885 24.266ZM91.5242 24.4794C90.1725 24.4794 88.9542 24.1682 87.8692 23.5457C86.7842 22.9232 85.9305 22.0694 85.308 20.9845C84.7033 19.8817 84.4009 18.6456 84.4009 17.2761C84.4009 15.9777 84.7033 14.7771 85.308 13.6744C85.9127 12.5538 86.7487 11.6645 87.8158 11.0064C88.883 10.3484 90.0747 10.0193 91.3909 10.0193C92.796 10.0193 94.0054 10.3217 95.0192 10.9264C96.033 11.5311 96.7978 12.3582 97.3136 13.4076C97.8472 14.457 98.114 15.6219 98.114 16.9025C98.114 17.3116 98.0873 17.7029 98.034 18.0764H87.8158C87.9937 19.1614 88.4206 19.9884 89.0964 20.5576C89.7901 21.109 90.6172 21.3847 91.5776 21.3847C92.378 21.3847 93.0628 21.2157 93.6319 20.8778C94.2189 20.522 94.6813 20.0507 95.0192 19.4638L97.8472 20.8511C96.4599 23.27 94.3522 24.4794 91.5242 24.4794ZM94.7524 15.5953C94.7169 15.1684 94.5568 14.7504 94.2722 14.3413C94.0054 13.9145 93.623 13.5676 93.125 13.3009C92.6448 13.0163 92.0756 12.874 91.4175 12.874C90.5816 12.874 89.8612 13.123 89.2565 13.621C88.6696 14.1012 88.2427 14.7593 87.9759 15.5953H94.7524ZM100.806 4.95027H104.301V24.0526H100.806V4.95027ZM107.737 4.95027H111.232V24.0526H107.737V4.95027ZM116.641 8.95214C116.019 8.95214 115.485 8.72982 115.041 8.28517C114.596 7.84051 114.374 7.30693 114.374 6.68441C114.374 6.0619 114.596 5.53721 115.041 5.11034C115.485 4.66569 116.019 4.44336 116.641 4.44336C117.264 4.44336 117.789 4.66569 118.215 5.11034C118.66 5.53721 118.882 6.0619 118.882 6.68441C118.882 7.30693 118.66 7.84051 118.215 8.28517C117.789 8.72982 117.264 8.95214 116.641 8.95214ZM114.88 10.4462H118.375V24.0526H114.88V10.4462ZM129.617 24.4794C128.692 24.4794 127.865 24.2838 127.136 23.8925C126.424 23.5012 125.891 23.0121 125.535 22.4251H125.322V24.0526H122.04V4.95027H125.535V10.1794L125.322 12.1003H125.535C125.909 11.5133 126.451 11.0242 127.163 10.6329C127.874 10.2239 128.692 10.0193 129.617 10.0193C130.844 10.0193 131.956 10.3306 132.952 10.9531C133.966 11.5578 134.757 12.4116 135.326 13.5143C135.896 14.617 136.18 15.8621 136.18 17.2494C136.18 18.6545 135.896 19.9084 135.326 21.0111C134.757 22.0961 133.966 22.9498 132.952 23.5724C131.956 24.1771 130.844 24.4794 129.617 24.4794ZM129.004 21.2513C129.662 21.2513 130.275 21.0823 130.844 20.7444C131.414 20.4064 131.867 19.9351 132.205 19.3304C132.543 18.7256 132.712 18.032 132.712 17.2494C132.712 16.4668 132.543 15.7731 132.205 15.1684C131.867 14.5637 131.414 14.1012 130.844 13.7811C130.275 13.4431 129.662 13.2742 129.004 13.2742C128.363 13.2742 127.758 13.4431 127.189 13.7811C126.62 14.1012 126.167 14.5637 125.829 15.1684C125.491 15.7731 125.322 16.4668 125.322 17.2494C125.322 18.032 125.491 18.7256 125.829 19.3304C126.167 19.9351 126.62 20.4064 127.189 20.7444C127.758 21.0823 128.363 21.2513 129.004 21.2513ZM143.65 24.4794C142.013 24.4794 140.768 23.9725 139.915 22.9587C139.061 21.9449 138.634 20.5309 138.634 18.7167V10.4462H142.129V18.2899C142.129 19.2148 142.351 19.944 142.796 20.4776C143.241 20.9934 143.828 21.2513 144.557 21.2513C145.553 21.2513 146.344 20.8866 146.931 20.1574C147.518 19.4282 147.812 18.5033 147.812 17.3828V10.4462H151.307V24.0526H148.025V22.3451H147.812C147.403 23.0032 146.825 23.5279 146.078 23.9192C145.348 24.2927 144.539 24.4794 143.65 24.4794ZM159.757 24.4794C158.103 24.4794 156.76 24.1415 155.729 23.4656C154.715 22.7898 154.004 21.9094 153.594 20.8244L156.716 19.4638C157.001 20.1041 157.401 20.5932 157.916 20.9311C158.45 21.2513 159.064 21.4113 159.757 21.4113C160.398 21.4113 160.931 21.3135 161.358 21.1179C161.785 20.9044 161.998 20.5665 161.998 20.1041C161.998 19.6594 161.803 19.3304 161.411 19.1169C161.02 18.8857 160.433 18.6812 159.651 18.5033L158.05 18.1565C156.947 17.8897 156.031 17.4095 155.302 16.7158C154.573 16.0044 154.208 15.1239 154.208 14.0746C154.208 13.292 154.439 12.5894 154.902 11.9669C155.382 11.3444 156.022 10.8642 156.823 10.5262C157.641 10.1883 158.539 10.0193 159.517 10.0193C162.327 10.0193 164.204 11.0064 165.147 12.9807L162.158 14.288C161.625 13.3275 160.771 12.8473 159.597 12.8473C158.993 12.8473 158.512 12.9629 158.157 13.1941C157.801 13.4076 157.623 13.6833 157.623 14.0212C157.623 14.6615 158.228 15.1417 159.437 15.4619L161.438 15.9421C162.79 16.28 163.804 16.7958 164.48 17.4895C165.173 18.1832 165.52 19.0369 165.52 20.0507C165.52 20.9222 165.262 21.6959 164.746 22.3718C164.248 23.0299 163.555 23.5457 162.665 23.9192C161.794 24.2927 160.825 24.4794 159.757 24.4794Z" fill="white"/>
</svg>
